<svg width="44" height="44" viewBox="0 0 44 44" fill="none" xmlns="http://www.w3.org/2000/svg">
<g clip-path="url(#clip0_8_92)">
<path d="M22 44C9.869 44 0 34.131 0 22C0 9.869 9.869 0 22 0C34.131 0 44 9.869 44 22C44 34.131 34.131 44 22 44Z" fill="#F0C419"/>
<path d="M22.745 32H21.254C20.009 32 19 30.991 19 29.745V13.255C19 12.009 20.009 11 21.255 11H22.746C23.991 11 25 12.009 25 13.255V29.746C25 30.991 23.991 32 22.745 32Z" fill="#FBD490"/>
<path d="M22 44C9.869 44 0 34.131 0 22C0 9.869 9.869 0 22 0C34.131 0 44 9.869 44 22C44 34.131 34.131 44 22 44Z" fill="#F0C419"/>
<path d="M22.745 32H21.254C20.009 32 19 30.991 19 29.745V13.255C19 12.009 20.009 11 21.255 11H22.746C23.991 11 25 12.009 25 13.255V29.746C25 30.991 23.991 32 22.745 32Z" fill="#FBD490"/>
</g>
<defs>
<clipPath id="clip0_8_92">
<rect width="44" height="44" fill="white"/>
</clipPath>
</defs>
</svg>
