<svg width="41" height="51" viewBox="0 0 41 51" fill="none" xmlns="http://www.w3.org/2000/svg">
<path d="M2 27L21.8161 38.8598L1.63722 50.0912L2 27ZM11.8089 41.0285C14.3315 42.595 17.307 43.5 20.5 43.5V47.5C16.5399 47.5 12.8364 46.3751 9.69869 44.4266L11.8089 41.0285ZM20.5 43.5C29.6127 43.5 37 36.1127 37 27H41C41 38.3218 31.8218 47.5 20.5 47.5V43.5Z" fill="#E20000"/>
<path d="M39 23.5L19.1839 11.6402L39.3628 0.408839L39 23.5ZM29.1911 9.4715C26.6685 7.90498 23.693 7 20.5 7V3C24.4601 3 28.1636 4.12486 31.3013 6.07342L29.1911 9.4715ZM20.5 7C11.3873 7 4 14.3873 4 23.5H0C0 12.1782 9.17816 3 20.5 3V7Z" fill="#3BE200"/>
</svg>
