<svg width="50" height="50" viewBox="0 0 50 50" fill="none" xmlns="http://www.w3.org/2000/svg">
<path d="M43.8267 4.34147C43.6213 3.04524 42.4029 2.15853 41.1032 2.3624L5.43155 8.00744C5.02232 8.07212 4.73165 8.44067 4.76419 8.85377C4.79673 9.26647 5.14167 9.58502 5.55556 9.58502L43.7252 9.57262C43.9577 9.57262 44.1779 9.47073 44.329 9.29434C44.4794 9.11805 44.5452 8.88433 44.5088 8.65496L43.8267 4.34147Z" fill="#73D14F"/>
<path d="M43.6508 7.98422H5.55556C2.49256 7.98422 0 10.4764 0 13.5398V42.1112C0 45.1746 2.49256 47.6668 5.55556 47.6668H43.6508C46.7138 47.6668 49.2063 45.1746 49.2063 42.1112V13.5398C49.2063 10.4764 46.7138 7.98422 43.6508 7.98422Z" fill="#9E6459"/>
<path d="M42.8571 42.9049H42.0635C41.6248 42.9049 41.2698 42.5495 41.2698 42.1112C41.2698 41.6729 41.6248 41.3175 42.0635 41.3175H42.8571C43.095 40.9486 43.588 40.8428 43.9547 41.0799C44.3228 41.3175 44.4298 41.8081 44.1926 42.1767C43.8988 42.6328 43.3997 42.9049 42.8571 42.9049Z" fill="#7E5C62"/>
<path d="M38.8889 42.9049H37.3016C36.8629 42.9049 36.5079 42.5495 36.5079 42.1112C36.5079 41.6729 36.8629 41.3176 37.3016 41.3176H38.8889C39.3276 41.3176 39.6825 41.6729 39.6825 42.1112C39.6825 42.5495 39.3276 42.9049 38.8889 42.9049Z" fill="#7E5C62"/>
<path d="M34.127 42.9049H32.5397C32.101 42.9049 31.746 42.5495 31.746 42.1112C31.746 41.6729 32.101 41.3176 32.5397 41.3176H34.127C34.5657 41.3176 34.9206 41.6729 34.9206 42.1112C34.9206 42.5495 34.5657 42.9049 34.127 42.9049Z" fill="#7E5C62"/>
<path d="M29.3651 42.9049H27.7778C27.3391 42.9049 26.9841 42.5495 26.9841 42.1112C26.9841 41.6729 27.3391 41.3176 27.7778 41.3176H29.3651C29.8038 41.3176 30.1587 41.6729 30.1587 42.1112C30.1587 42.5495 29.8038 42.9049 29.3651 42.9049Z" fill="#7E5C62"/>
<path d="M24.6032 42.9049H23.0159C22.5772 42.9049 22.2222 42.5495 22.2222 42.1112C22.2222 41.6729 22.5772 41.3176 23.0159 41.3176H24.6032C25.0419 41.3176 25.3968 41.6729 25.3968 42.1112C25.3968 42.5495 25.0419 42.9049 24.6032 42.9049Z" fill="#7E5C62"/>
<path d="M19.8413 42.9049H18.254C17.8153 42.9049 17.4603 42.5495 17.4603 42.1112C17.4603 41.6729 17.8153 41.3176 18.254 41.3176H19.8413C20.28 41.3176 20.6349 41.6729 20.6349 42.1112C20.6349 42.5495 20.28 42.9049 19.8413 42.9049Z" fill="#7E5C62"/>
<path d="M15.0794 42.9049H13.4921C13.0534 42.9049 12.6984 42.5495 12.6984 42.1112C12.6984 41.6729 13.0534 41.3176 13.4921 41.3176H15.0794C15.5181 41.3176 15.873 41.6729 15.873 42.1112C15.873 42.5495 15.5181 42.9049 15.0794 42.9049Z" fill="#7E5C62"/>
<path d="M10.3175 42.9049H8.73016C8.29147 42.9049 7.93651 42.5495 7.93651 42.1112C7.93651 41.6729 8.29147 41.3176 8.73016 41.3176H10.3175C10.7562 41.3176 11.1111 41.6729 11.1111 42.1112C11.1111 42.5495 10.7562 42.9049 10.3175 42.9049Z" fill="#7E5C62"/>
<path d="M5.55556 42.9049H3.96826C3.52957 42.9049 3.17461 42.5495 3.17461 42.1112C3.17461 41.6729 3.52957 41.3176 3.96826 41.3176H5.55556C5.99425 41.3176 6.34921 41.6729 6.34921 42.1112C6.34921 42.5495 5.99425 42.9049 5.55556 42.9049Z" fill="#7E5C62"/>
<path d="M43.6508 39.3904C43.2121 39.3904 42.8571 39.035 42.8571 38.5967V37.0094C42.8571 36.5711 43.2121 36.2158 43.6508 36.2158C44.0895 36.2158 44.4444 36.5711 44.4444 37.0094V38.5967C44.4444 39.035 44.0895 39.3904 43.6508 39.3904Z" fill="#7E5C62"/>
<path d="M38.0952 34.1747H48.4127C49.2894 34.1747 50 33.4641 50 32.5874V23.0636C50 22.1869 49.2894 21.4763 48.4127 21.4763H38.0952C34.5887 21.4763 31.746 24.3189 31.746 27.8255C31.746 31.332 34.5887 34.1747 38.0952 34.1747Z" fill="#5C546A"/>
<path d="M38.0952 31.0001C39.8485 31.0001 41.2698 29.5788 41.2698 27.8255C41.2698 26.0722 39.8485 24.6509 38.0952 24.6509C36.342 24.6509 34.9206 26.0722 34.9206 27.8255C34.9206 29.5788 36.342 31.0001 38.0952 31.0001Z" fill="#FFD100"/>
<path d="M43.6508 20.6826C43.2121 20.6826 42.8571 20.3273 42.8571 19.889V18.3017C42.8571 17.8634 43.2121 17.508 43.6508 17.508C44.0895 17.508 44.4444 17.8634 44.4444 18.3017V19.889C44.4444 20.3273 44.0895 20.6826 43.6508 20.6826Z" fill="#7E5C62"/>
<path d="M43.6508 15.9207C43.2121 15.9207 42.8571 15.5654 42.8571 15.1271V14.333C42.489 14.0954 42.382 13.6041 42.6199 13.2355C42.8564 12.8674 43.3454 12.7592 43.7167 12.9983C44.1724 13.2921 44.4444 13.7912 44.4444 14.3329V15.127C44.4444 15.5654 44.0895 15.9207 43.6508 15.9207Z" fill="#7E5C62"/>
<path d="M40.1367 14.333H38.5494C38.1107 14.333 37.7558 13.9777 37.7558 13.5394C37.7558 13.1011 38.1107 12.7457 38.5494 12.7457H40.1367C40.5754 12.7457 40.9304 13.1011 40.9304 13.5394C40.9304 13.9777 40.5754 14.333 40.1367 14.333Z" fill="#7E5C62"/>
<path d="M35.3748 14.333H33.7875C33.3488 14.333 32.9939 13.9777 32.9939 13.5394C32.9939 13.1011 33.3488 12.7457 33.7875 12.7457H35.3748C35.8135 12.7457 36.1685 13.1011 36.1685 13.5394C36.1685 13.9777 35.8135 14.333 35.3748 14.333Z" fill="#7E5C62"/>
<path d="M30.6129 14.333H29.0256C28.5869 14.333 28.2319 13.9777 28.2319 13.5394C28.2319 13.1011 28.5869 12.7457 29.0256 12.7457H30.6129C31.0516 12.7457 31.4066 13.1011 31.4066 13.5394C31.4066 13.9777 31.0516 14.333 30.6129 14.333Z" fill="#7E5C62"/>
<path d="M25.851 14.333H24.2637C23.825 14.333 23.47 13.9777 23.47 13.5394C23.47 13.1011 23.825 12.7457 24.2637 12.7457H25.851C26.2897 12.7457 26.6446 13.1011 26.6446 13.5394C26.6446 13.9777 26.2897 14.333 25.851 14.333Z" fill="#7E5C62"/>
<path d="M21.0891 14.333H19.5018C19.0631 14.333 18.7081 13.9777 18.7081 13.5394C18.7081 13.1011 19.0631 12.7457 19.5018 12.7457H21.0891C21.5278 12.7457 21.8827 13.1011 21.8827 13.5394C21.8827 13.9777 21.5278 14.333 21.0891 14.333Z" fill="#7E5C62"/>
<path d="M16.3272 14.333H14.7399C14.3012 14.333 13.9462 13.9777 13.9462 13.5394C13.9462 13.1011 14.3012 12.7457 14.7399 12.7457H16.3272C16.7659 12.7457 17.1208 13.1011 17.1208 13.5394C17.1208 13.9777 16.7659 14.333 16.3272 14.333Z" fill="#7E5C62"/>
<path d="M11.5653 14.333H9.97798C9.53929 14.333 9.18433 13.9777 9.18433 13.5394C9.18433 13.1011 9.53929 12.7457 9.97798 12.7457H11.5653C12.004 12.7457 12.3589 13.1011 12.3589 13.5394C12.3589 13.9777 12.004 14.333 11.5653 14.333Z" fill="#7E5C62"/>
<path d="M6.80338 14.333H5.21608C4.77738 14.333 4.42242 13.9777 4.42242 13.5394C4.42242 13.1011 4.77738 12.7457 5.21608 12.7457H6.80338C7.24207 12.7457 7.59703 13.1011 7.59703 13.5394C7.59703 13.9777 7.24207 14.333 6.80338 14.333Z" fill="#7E5C62"/>
<path d="M2.04147 12.7457H0.454167C0.300298 12.7457 0.16498 12.801 0.0433532 12.8767C0.0173611 13.0946 0 13.315 0 13.5398V14.1728C0.130258 14.2664 0.281448 14.333 0.454167 14.333H2.04147C2.48016 14.333 2.83512 13.9777 2.83512 13.5394C2.83512 13.1011 2.48016 12.7457 2.04147 12.7457Z" fill="#7E5C62"/>
<path d="M0.793651 41.3176H0V42.1112C0 42.3813 0.0259921 42.6449 0.0633929 42.9049H0.793651C1.23234 42.9049 1.5873 42.5495 1.5873 42.1112C1.5873 41.6729 1.23234 41.3176 0.793651 41.3176Z" fill="#7E5C62"/>
</svg>
